<svg width="312" height="43" viewBox="0 0 312 43" fill="none" xmlns="http://www.w3.org/2000/svg">
<path d="M9.52 27.28H27.04V34H0.88V0.399998H9.52V27.28ZM39.7713 14.08C38.4913 14.08 37.8513 14.72 37.8513 16V18.64H46.0113V16C46.0113 14.72 45.3713 14.08 44.0913 14.08H39.7713ZM53.4513 33.52C47.2753 34.16 41.6753 34.48 36.6513 34.48C34.4753 34.48 32.7313 33.824 31.4193 32.512C30.1073 31.2 29.4513 29.456 29.4513 27.28V15.76C29.4513 13.36 30.1233 11.488 31.4673 10.144C32.8433 8.768 34.7313 8.08 37.1313 8.08H46.7313C49.1313 8.08 51.0033 8.768 52.3473 10.144C53.7233 11.488 54.4113 13.36 54.4113 15.76V24.64H37.8513V26.56C37.8513 27.04 38.0113 27.44 38.3313 27.76C38.6513 28.08 39.0513 28.24 39.5312 28.24C42.6993 28.24 47.3393 28 53.4513 27.52V33.52ZM71.6725 34C69.5285 34.32 67.4805 34.48 65.5285 34.48C63.6085 34.48 61.9925 33.824 60.6805 32.512C59.3685 31.2 58.7125 29.456 58.7125 27.28V0.399998H67.1125V26.08C67.1125 26.56 67.2725 26.96 67.5925 27.28C67.9125 27.6 68.3125 27.76 68.7925 27.76H71.6725V34ZM85.105 27.76C86.801 27.76 88.721 27.44 90.865 26.8V23.92H83.905C83.425 23.92 83.025 24.08 82.705 24.4C82.385 24.72 82.225 25.12 82.225 25.6V26.08C82.225 26.56 82.385 26.96 82.705 27.28C83.025 27.6 83.425 27.76 83.905 27.76H85.105ZM76.225 9.04C82.081 8.4 87.361 8.08 92.065 8.08C94.241 8.08 95.985 8.736 97.297 10.048C98.609 11.36 99.265 13.104 99.265 15.28V34H91.825L91.345 31.6C89.841 32.592 88.289 33.328 86.689 33.808C85.121 34.256 83.793 34.48 82.705 34.48H81.025C78.849 34.48 77.105 33.824 75.793 32.512C74.481 31.2 73.825 29.456 73.825 27.28V25.12C73.825 22.944 74.481 21.2 75.793 19.888C77.105 18.576 78.849 17.92 81.025 17.92H90.865V16C90.865 15.52 90.705 15.12 90.385 14.8C90.065 14.48 89.665 14.32 89.185 14.32C87.105 14.32 84.801 14.416 82.273 14.608C79.777 14.8 77.761 14.944 76.225 15.04V9.04ZM117.732 15.04C116.036 15.04 114.116 15.36 111.972 16V34H103.572V8.56H111.012L111.492 10.96C112.996 9.968 114.532 9.248 116.1 8.8C117.7 8.32 119.044 8.08 120.132 8.08H122.292C124.468 8.08 126.212 8.736 127.524 10.048C128.836 11.36 129.492 13.104 129.492 15.28V34H121.092V16.72C121.092 16.24 120.932 15.84 120.612 15.52C120.292 15.2 119.892 15.04 119.412 15.04H117.732ZM150.366 32.08C147.262 32.72 144.542 33.04 142.206 33.04H140.526C138.35 33.04 136.606 32.384 135.294 31.072C133.982 29.76 133.326 28.016 133.326 25.84V16.24C133.326 13.84 133.998 11.968 135.342 10.624C136.718 9.248 138.606 8.56 141.006 8.56H158.766V35.44C158.766 37.616 158.11 39.36 156.798 40.672C155.486 41.984 153.742 42.64 151.566 42.64C146.542 42.64 140.942 42.32 134.766 41.68V35.44C140.878 35.92 145.518 36.16 148.686 36.16C149.166 36.16 149.566 36 149.886 35.68C150.206 35.36 150.366 34.96 150.366 34.48V32.08ZM144.606 26.56C146.622 26.56 148.542 26.4 150.366 26.08V15.04H143.646C142.366 15.04 141.726 15.68 141.726 16.96V24.88C141.726 25.36 141.886 25.76 142.206 26.08C142.526 26.4 142.926 26.56 143.406 26.56H144.606ZM164.052 0.399998H183.252C186.388 0.399998 188.692 1.12 190.164 2.56C191.636 3.968 192.372 6.128 192.372 9.04C192.372 10.96 191.956 12.528 191.124 13.744C190.292 14.928 189.268 15.76 188.052 16.24C190.644 16.944 192.404 18.672 193.332 21.424C193.652 22.416 193.812 23.568 193.812 24.88C193.812 28.016 193.076 30.32 191.604 31.792C190.132 33.264 187.828 34 184.692 34H164.052V0.399998ZM185.172 23.44C185.172 21.52 184.212 20.56 182.292 20.56H172.692V27.28H182.292C184.212 27.28 185.172 26.32 185.172 24.4V23.44ZM183.732 10C183.732 8.08 182.772 7.12 180.852 7.12H172.692V13.84H180.852C182.772 13.84 183.732 12.88 183.732 10.96V10ZM209.41 27.52C211.106 27.52 213.026 27.2 215.17 26.56V8.56H223.57V34H216.13L215.65 31.6C214.146 32.592 212.594 33.328 210.994 33.808C209.426 34.256 208.098 34.48 207.01 34.48H204.85C202.674 34.48 200.93 33.824 199.618 32.512C198.306 31.2 197.65 29.456 197.65 27.28V8.56H206.05V25.84C206.05 26.32 206.21 26.72 206.53 27.04C206.85 27.36 207.25 27.52 207.73 27.52H209.41ZM238.433 27.76C240.129 27.76 242.049 27.44 244.193 26.8V23.92H237.233C236.753 23.92 236.353 24.08 236.033 24.4C235.713 24.72 235.553 25.12 235.553 25.6V26.08C235.553 26.56 235.713 26.96 236.033 27.28C236.353 27.6 236.753 27.76 237.233 27.76H238.433ZM229.553 9.04C235.409 8.4 240.689 8.08 245.393 8.08C247.569 8.08 249.313 8.736 250.625 10.048C251.937 11.36 252.593 13.104 252.593 15.28V34H245.153L244.673 31.6C243.169 32.592 241.617 33.328 240.017 33.808C238.449 34.256 237.121 34.48 236.033 34.48H234.353C232.177 34.48 230.433 33.824 229.121 32.512C227.809 31.2 227.153 29.456 227.153 27.28V25.12C227.153 22.944 227.809 21.2 229.121 19.888C230.433 18.576 232.177 17.92 234.353 17.92H244.193V16C244.193 15.52 244.033 15.12 243.713 14.8C243.393 14.48 242.993 14.32 242.513 14.32C240.433 14.32 238.129 14.416 235.601 14.608C233.105 14.8 231.089 14.944 229.553 15.04V9.04ZM271.06 15.04C269.364 15.04 267.444 15.36 265.3 16V34H256.9V8.56H264.34L264.82 10.96C266.324 9.968 267.86 9.248 269.428 8.8C271.028 8.32 272.372 8.08 273.46 8.08H275.62C277.796 8.08 279.54 8.736 280.852 10.048C282.164 11.36 282.82 13.104 282.82 15.28V34H274.42V16.72C274.42 16.24 274.26 15.84 273.94 15.52C273.62 15.2 273.22 15.04 272.74 15.04H271.06ZM297.214 27.76C298.91 27.76 300.83 27.44 302.974 26.8V23.92H296.014C295.534 23.92 295.134 24.08 294.814 24.4C294.494 24.72 294.334 25.12 294.334 25.6V26.08C294.334 26.56 294.494 26.96 294.814 27.28C295.134 27.6 295.534 27.76 296.014 27.76H297.214ZM288.334 9.04C294.19 8.4 299.47 8.08 304.174 8.08C306.35 8.08 308.094 8.736 309.406 10.048C310.718 11.36 311.374 13.104 311.374 15.28V34H303.934L303.454 31.6C301.95 32.592 300.398 33.328 298.798 33.808C297.23 34.256 295.902 34.48 294.814 34.48H293.134C290.958 34.48 289.214 33.824 287.902 32.512C286.59 31.2 285.934 29.456 285.934 27.28V25.12C285.934 22.944 286.59 21.2 287.902 19.888C289.214 18.576 290.958 17.92 293.134 17.92H302.974V16C302.974 15.52 302.814 15.12 302.494 14.8C302.174 14.48 301.774 14.32 301.294 14.32C299.214 14.32 296.91 14.416 294.382 14.608C291.886 14.8 289.87 14.944 288.334 15.04V9.04Z" fill="white"/>
</svg>
